<svg xmlns="http://www.w3.org/2000/svg" width="300" height="49.848" viewBox="0 0 300 49.848"><path fill="#020303" d="M299.777 36.93l-.92-3.17-.867-2.897s-2.735-8.914-3.092-10.088c-.443-1.454-.883-2.903-1.298-4.313l-.07-.243 6.06-7.283L296.744 0 266.21.03l-.932 1.484-.365-1.483-30.74.033-.753 1.686-.297-1.69-30.98.035-.546 2.024-.207-2.025-31.296.03-.3 3.31-.097-3.31-31.455.033-.105 3.027-.326-3.03-31.187.034-.21 1.95-.557-1.95-15.04.014-1.2 8.39-.684-1.732-.33-.03L85.97.208 71.124.223l-.3 1.61-.783-1.61-14.7.015-.335 1.502L54.14.238 39.562.254l-1.696 6.532-3.95.004-.756 2.855L26.296.267 12.11.28-.013 37.938l12.888 11.915h14.042l2.23-8.393 1.09 1.21h3.756l6.255 7.18 14.43-.005.284-1.358 1.02 1.36 14.542-.002.26-1.47.93 1.47 14.678-.002 1.134-7.87 3.787 7.87 14.875-.003.187-1.8.648 1.8 30.942-.003.11-2.862.342 2.863 31.19-.005.3-3.128.106 3.128 15.302-.003.478-2.198.144 2.198 15.116-.003.64-1.887.188 1.887h14.952l.77-1.68.222 1.68h14.808l.89-1.534.25 1.533 14.68-.005 8.485-12.097-.405-1.94h4.702l6.64-9.2 5.716 23.236 14.41-.003 12.025-11.98-.248-.906zm-145.76-9.194l.156-5.14 14.732-.01.128-1.708.232 6.853-15.247.006z"/><path fill="#A9A09D" d="M26.943 8.807l-1.96 6.836h8.698l1.828-6.75 3.976-.004 1.693-6.548L52.64 2.33l-8.08 34.736-12.358.004 3.703-14.75-4.46-.005-1.93 7.185-8.006.003 1.995-7.192-4.52.014-4.36 14.75-12.13.008L13.63 2.37l11.252-.012-1.866 6.304M68.447 2.4l-6.83 34.746-12.36.005 7.728-34.74M85.164 25.878l1.024-7.183-4.477-.084-2.96 18.446-12.376.002L72.858 2.31l11.474-.01-1.005 6.433 3.928.1-.93 6.72 4.416.062L92.627 2.29l11.482-.01-4.023 34.768-12.39.005 1.55-11.074M134.653 29.88l-.313 7.157-29.52.01 3.674-34.77 27.367-.03-.27 6.157-16.1.015-.506 7.092 16.295.044-.295 6.72-16.602.01-.558 7.53M295.203 2.092l1.965 6.172-7.992.006.05.19c.33 1.35.688 2.724 1.072 4.126.387 1.407.795 2.837 1.218 4.286.427 1.454.863 2.93 1.315 4.405.453 1.484.912 2.978 1.37 4.47l.836 2.75c.287.927.573 1.862.855 2.8.288.944.57 1.892.85 2.84s.558 1.897.825 2.846l-12.473.004-7.842-28.704-7.998.007-1.577-6.17 27.528-.028zM266.487 15.292l1.7 6.904-16.688.01 3.09 14.79-12.45.004-6.377-34.85 27.496-.027 1.516 6.17-16.187.014 1.46 6.978M218.643 25.764l1.537 11.245-12.44.002-3.85-34.83 27.464-.027 6.024 34.85-12.443.003-1.62-11.228-4.672-.016zm8.064-13.68l-.7-4.423-5.436.007.5 4.054-4.267-.033-.55-4.017-5.26.007.553 4.42 4.83-.002.22 1.626-2.426.003.887 6.814 2.914-.003-.218-2.317 4.32-.017.36 2.33h2.955l-1.036-6.784-2.406-.013-.21-1.646 4.973-.002M197.07 18.978l4.105-.003 1.818 18.037-12.425.007-1.11-14.685-4.6-.113.956 14.797-12.423.006-1.334-34.813 27.432-.026 1.3 12.917-4.094-.004.377 3.878zm-8.104-3.456l-.538-7.162h-4.465l.46 7.164 4.543-.002M151.92 8.39l15.913-.013-.176-6.16-27.403.03-1.17 34.787 29.562-.008-.204-7.153-16.904.006"/><path fill="#282729" d="M4.115 37.08c-.89 0-1.095.505-.45 1.122l8.79 8.427c.643.614 1.9 1.12 2.792 1.12h7.74c.892 0 1.122-.533.515-1.186l-7.77-8.304c-.607-.65-1.836-1.184-2.728-1.184l-8.89.004zM33.824 37.07c-.892 0-1.155.56-.582 1.244l6.865 8.19c.572.687 1.77 1.245 2.662 1.245h8.115c.892 0 1.186-.586.654-1.302l-6.012-8.08c-.533-.716-1.698-1.302-2.59-1.3l-9.114.003z"/><path fill="#282729" d="M23.13 29.502c-.892 0-1.14.545-.547 1.215l7.64 8.623c.59.668 1.67 1.186 2.4 1.15.727-.034.904-.66.39-1.39l-.53-.754c-.515-.73-.74-2.03-.502-2.89l.15-.538c.24-.858-.02-2.135-.574-2.834l-1.038-1.31c-.553-.7-1.735-1.272-2.626-1.272H23.13zM50.877 37.15c-.893.002-1.188.59-.66 1.31l5.872 7.983c.525.72 1.688 1.307 2.58 1.307h7.994c.89 0 1.233-.617.757-1.373L62.48 38.52c-.475-.756-1.592-1.374-2.484-1.372l-9.117.003zM67.995 37.058c-.89 0-1.24.623-.775 1.384l4.764 7.8c.466.76 1.573 1.382 2.466 1.382h7.866c.893 0 1.302-.655.907-1.456l-3.755-7.658c-.393-.8-1.444-1.455-2.336-1.455l-9.137.003zM89.317 37.052c-.89 0-1.314.662-.94 1.47l3.587 7.756c.376.81 1.41 1.47 2.303 1.47h8.12c.892 0 1.37-.684 1.063-1.52l-2.807-7.66c-.308-.837-1.287-1.52-2.18-1.52l-9.146.004zM106.44 37.047c-.89 0-1.375.688-1.075 1.525l2.645 7.397c.3.84 1.276 1.527 2.167 1.527h24.02c.892 0 1.52-.724 1.394-1.605l-1.025-7.25c-.124-.885-.958-1.606-1.847-1.606l-26.278.01zM140.704 37.034c-.89 0-1.543.725-1.447 1.613l.808 7.49c.096.89.903 1.613 1.795 1.613h23.896c.893 0 1.708-.725 1.812-1.61l.887-7.503c.105-.887-.54-1.61-1.43-1.61l-26.32.007zM175.012 37.024c-.892 0-1.713.725-1.826 1.61l-.935 7.38c-.112.887.525 1.61 1.418 1.61h7.997c.892 0 1.792-.71 1.997-1.577l1.776-7.45c.203-.87-.355-1.578-1.247-1.577l-9.178.004zM192.188 37.018c-.892 0-1.79.71-1.997 1.58l-1.736 7.323c-.206.87.355 1.58 1.248 1.58h7.996c.89 0 1.862-.69 2.157-1.53l2.603-7.427c.292-.84-.194-1.53-1.086-1.53l-9.184.005zM209.36 37.01c-.893 0-1.866.69-2.162 1.53l-2.668 7.557c-.297.84.188 1.528 1.08 1.528h7.988c.892 0 1.932-.662 2.31-1.47l3.586-7.678c.377-.81-.043-1.47-.934-1.47l-9.2.004zM226.556 37.006c-.892 0-1.94.656-2.33 1.458l-3.75 7.702c-.39.803.02 1.458.91 1.458h8.245c.894 0 1.988-.63 2.433-1.403l4.503-7.81c.447-.772.082-1.404-.81-1.404h-9.2zM243.762 37c-.89 0-2.002.623-2.465 1.385l-4.782 7.854c-.464.76-.114 1.384.776 1.384h8.118c.892 0 2.046-.594 2.563-1.32l5.682-7.986c.516-.727.21-1.322-.683-1.322L243.76 37zM286.714 36.986c-.892 0-2.104.546-2.694 1.215l-7.135 8.082c-.59.67-.344 1.215.548 1.215h7.737c.894 0 2.144-.51 2.784-1.13l8.455-8.254c.635-.622.428-1.13-.465-1.13l-9.23.003z"/><path fill="#020303" d="M11.584 8.145c-.083.225.578.413 1.47.415l8.5.035c.892.004 1.63-.19 1.644-.426.012-.24-.708-.435-1.6-.435h-8.242c-.893 0-1.69.184-1.772.41M10.994 25.81c.277-.846-.224-1.54-1.115-1.54H7.8c-.89 0-1.62.17-1.62.378s.73.38 1.62.38H8.83c.89 0 1.394.692 1.115 1.54l-1.89 5.753c-.277.85.225 1.543 1.117 1.543h6.37c.892 0 1.62-.17 1.62-.38s-.728-.377-1.62-.377h-5.323c-.893 0-1.395-.695-1.116-1.542l.15-.453c.28-.847 1.237-1.54 2.128-1.54h4.916c.893 0 1.623-.17 1.623-.377 0-.21-.73-.38-1.622-.38H11.63c-.89 0-1.393-.69-1.115-1.54l.48-1.462zM44.894 9.634c.12-.882-.512-1.606-1.402-1.606l-2.464.003c-.892.002-1.685.172-1.765.38-.08.204.587.374 1.48.374h1.884c.892 0 1.524.723 1.403 1.607l-.346 2.553c-.12.883-.948 1.606-1.838 1.606h-7.79c-.89 0-1.62.17-1.62.377 0 .208.73.38 1.62.38H49.37c.89 0 1.62-.172 1.62-.38 0-.207-.728-.378-1.62-.378h-3.52c-.89 0-1.524-.724-1.402-1.607l.448-3.31zM55.592 32.82c.16-.877.057-1.22-.23-.764-.286.454-.654 1.544-.82 2.423l-.24 1.285c-.165.875.11 2.197.61 2.936l.41.6c.5.74 1.3 1.63 1.778 1.985.476.354.46.038-.035-.704l-1.368-2.045c-.496-.742-.77-2.065-.61-2.943l.505-2.77zM67.78 9.375c0-.208-.73-.365-1.62-.347l-3.196.062c-.89.02-1.252.174-.8.347.45.174 1.55.317 2.44.317h1.555c.89 0 1.62-.17 1.62-.38M72.477 34.66c.195-.872.097-1.2-.214-.73-.31.473-.68 1.366-.827 1.986-.146.622-.03 1.75.26 2.508.29.76.79 1.72 1.11 2.133.324.413.36.06.078-.787l-.412-1.237c-.28-.847-.354-2.253-.162-3.123l.167-.75zM69.42 25.868c-.89-.044-1.628.087-1.64.296-.01.208.71.414 1.6.46l9.065.46c.89.043 1.85.442 2.135.883.284.44.66.708.833.596.176-.113.04-.64-.302-1.17-.34-.53-1.352-1.003-2.238-1.048l-9.45-.477zM79.015 8.17c.346.24 1.36.437 2.25.437h.69c.89 0 1.622-.17 1.622-.38 0-.206-.73-.395-1.622-.415l-1.95-.042c-.892-.022-1.337.16-.99.4M89.835 26.096c-.89.038-1.614.24-1.605.447.008.208.745.347 1.634.31l5.265-.224c.89-.04 1.51.652 1.376 1.534l-1.1 7.28c-.136.88-.035 2.3.224 3.155l.23.762c.258.853.77 1.982 1.145 2.507.374.525.468.256.213-.598l-.814-2.727c-.254-.855-.355-2.276-.222-3.156l1.21-8.023c.133-.88-.486-1.573-1.378-1.534l-6.18.263zM91.64 7.986c-.037.205.653.495 1.534.643l8.973 1.053c.884.11 1.608.028 1.608-.18 0-.21-.724-.47-1.608-.582l-8.845-1.037c-.88-.15-1.63-.1-1.663.103M111.164 30.814c.03-.892-.672-1.62-1.565-1.62h-3.21c-.89 0-1.622.172-1.622.38 0 .207.73.378 1.622.378h2.424c.89 0 1.595.73 1.565 1.62l-.13 3.744c-.032.89.124 2.326.345 3.19l.6 2.34c.222.864.636 1.993.925 2.508.286.517.36.226.163-.643l-.97-4.276c-.196-.87-.333-2.31-.303-3.2l.154-4.42zM106.662 12.406c0 .208.73.38 1.622.38h3.066c.89 0 1.99-.2 2.44-.442.453-.244.09-.43-.8-.418l-4.707.076c-.89.014-1.62.196-1.62.404M127.528 16.297c-.02-.892-.21-1.622-.422-1.622-.205 0-.376.73-.376 1.622v3.7c0 .892.197 1.194.44.675.243-.522.423-1.676.402-2.57l-.044-1.805zM131.22 30.097c-.033.892-.787 1.62-1.68 1.62h-2.453c-.89 0-1.622.73-1.622 1.622v2.437c0 .892.17 1.62.38 1.62s.38-.728.38-1.62v-1.68c0-.892.728-1.62 1.622-1.62h2.428c.89 0 1.645-.73 1.675-1.622l.026-.785c.03-.892-.115-1.626-.323-1.635-.208-.007-.405.716-.435 1.606v.057zM162.266 31.785c-.174.332-.24 1.33-.144 2.216l.16 1.53c.094.886.07 2.335-.052 3.217l-1.067 7.726c-.12.882-.012 1.594.242 1.583.256-.012.555-.746.665-1.63l.95-7.664c.11-.886.12-2.336.025-3.222l-.29-2.746c-.097-.886-.315-1.34-.49-1.01M139.48 43.71c0 .208.728.38 1.62.38h.42c.89 0 1.62-.17 1.62-.38 0-.207-.73-.378-1.62-.378h-.42c-.892 0-1.62.17-1.62.378M142.384 13.414c.417.208 1.468.54 2.338.737l6.247 1.116c.82.353 1.556.487 1.638.295.084-.19-.54-.576-1.388-.857l-8.002-1.364c-.875-.17-1.25-.134-.834.074M142.255 20.42c.347-.244-.098-.416-.99-.383l-.29.01c-.895.032-1.622.23-1.622.437 0 .208.51.378 1.134.378.626 0 1.42-.2 1.768-.442M177.545 13.792c.053.487.826.884 1.72.884h.707c.89 0 1.733.04 1.864.084.137.047.638.404.816.297s.048-.404-.288-.66c-.337-.256-1.38-.47-2.27-.474h-.15c-.894 0-1.704-.73-1.804-1.613l-.994-8.938c-.1-.888-.35-1.593-.557-1.57-.206.024-.297.768-.197 1.654l.788 7.086c.102.886-.552 1.61-1.44 1.61h-2.575c-.892 0-1.62.17-1.62.377s.73.377 1.62.377h2.658c.892 0 1.666.398 1.722.885M176.46 31.578c.06.89-.253 2.25-.698 3.023l-.678.764c-.207.868-.21 1.612-.008 1.656.205.043.595-.615.866-1.465 0 0 .103-.37.432-.837.325-.47.688-.854.798-.854.112 0 .155-.73.094-1.618l-.282-4.087c-.063-.89.618-1.617 1.51-1.617h6.074c.892 0 1.62-.17 1.62-.38 0-.206-.73-.38-1.62-.38h-6.884c-.89 0-1.574.73-1.512 1.62l.288 4.175zM189.215 28.437c0 .208.73.38 1.62.38h4.08c.892 0 1.933-.172 2.315-.38.387-.21-.03-.38-.922-.38h-5.473c-.89 0-1.62.172-1.62.38M192.717 17.747c.227.187 1.14.34 2.03.34h1.178c.893 0 1.622-.17 1.622-.377 0-.21-.73-.37-1.622-.357l-1.996.03c-.894.012-1.437.176-1.213.364M171.922 44.34c-.017.208.7.43 1.588.494l9.013.65c.888.065 1.628-.053 1.645-.26.014-.208-.702-.43-1.59-.494l-9.01-.648c-.89-.064-1.63.052-1.646.26M224.538 28.166c-.89.01-1.62.188-1.618.396 0 .208.732.37 1.623.363l11.02 1.224c.89.085 1.675-.004 1.745-.2.074-.193-.594-.427-1.48-.517l-11.29-1.267zM258.898 14.17c-.195.07-.316.854-.274 1.746l1.007 5.078c-.38.806-.542 1.54-.355 1.635.188.092.66-.49 1.045-1.292l-.983-5.675c-.046-.89-.242-1.562-.44-1.493M253.048 4.704c-.797 0-1.656-.68-1.91-1.506-.256-.83-.625-1.458-.825-1.397-.198.062-.147.81.115 1.662l.14.45c.26.854 1.128 1.55 1.93 1.55.8 0 1.696.69 1.983 1.535l.378 1.092c.29.843.688 1.478.88 1.41.198-.066.12-.81-.168-1.655l-.55-1.607c-.288-.843-1.176-1.534-1.972-1.534M282.988 26.67c-.89 0-1.62.17-1.62.378 0 .21.73.38 1.62.38h10.392c.893 0 1.62-.17 1.62-.38s-.728-.38-1.62-.38h-10.392zM290.834 8.87c.2-.054.175-.803-.063-1.663l-1.04-3.815c-.23-.86-.59-1.52-.792-1.464-.198.054-.173.803.063 1.663l1.042 3.815c.237.86.592 1.52.792 1.465"/><path fill="#020303" d="M38.936 8.648h3.396c.89 0 .904-.142.03-.31l-1.172-.23c-.876-.172-1.546-.014-1.494.352l-.76.188zM19.937 42.256c-.345-.382-1.354-.606-2.237-.5L15.74 42c-.884.107-.884.28.002.386l3.215.378c.887.103 1.328-.125.98-.508M52.063 46.424c-.24-.382-1.167-.634-2.057-.557l-4.215.357c-.888.074-.888.203 0 .284l5.102.462c.888.08 1.417-.165 1.17-.546M90.946 44.846c-.105-.346.538-.61 1.43-.584l1.05.032c.892.024.922.25.065.5l-.8.23c-.856.248-1.64.168-1.744-.178M135.44 42.385c-.07-.52-.846-.845-1.73-.72l-2.98.426c-.878.127-.878.343 0 .483l3.23.507c.883.14 1.547-.174 1.48-.695M139.16 44.188c-.044-.52.647-.86 1.53-.76l.094.01c.888.102.956.5.15.887l-.228.11c-.805.384-1.5.273-1.545-.247M111.016 35.505c-.105-.764-.304-.82-.443-.126-.14.694-.044 1.96.212 2.814l.204.68c.256.853.416.824.352-.064l-.02-.3c-.066-.89-.2-2.24-.306-3.005M125.783 36.072c-.174-.313-.29.16-.26 1.05l.014.423c.032.89.17 1.052.312.36.136-.696.108-1.52-.067-1.833M95.868 35.756c-.036-.765-.176-.765-.314 0-.14.765-.022 2.082.257 2.928l.237.71c.28.845.393.816.246-.062l-.096-.586c-.146-.882-.296-2.225-.33-2.99M71.818 36.325c-.14-.313-.37-.255-.504.126-.14.383.005 1.09.317 1.578.314.485.543.43.506-.126-.036-.555-.178-1.264-.318-1.577M55.03 35.79c-.173-.765-.485-.68-.693.187v.003c-.21.866.133 2.088.756 2.713.624.626.935.54.694-.188-.245-.73-.584-1.95-.758-2.715M24.8 34.685c-.244-.313.285-.504 1.174-.427l2.57.223c.89.078.892.233.01.347l-1.705.22c-.884.114-1.807-.05-2.05-.362M162.478 35.215c.127-.882.38-.89.57-.02l.077.364c.188.87.154 2.29-.074 3.152l-.308 1.158c-.228.86-.436.836-.46-.055l-.033-1.048c-.027-.892.055-2.343.18-3.227l.048-.325zM152.355 15.75c0 .382-.604.282-1.34-.217l-.477-.323c-.738-.502-.633-.742.235-.534h.005c.868.21 1.577.69 1.577 1.074M201.65 41.436c.103-.347-.54-.61-1.434-.585l-1.174.035c-.89.026-.916.243-.06.486l.92.258c.857.24 1.644.154 1.748-.192M195.336 36.073c-.244-.52-.416-.217-.382.674l.006.166c.035.89.23 1.28.44.863.21-.417.18-1.182-.064-1.703M217.746 43.015c.138-.382-.476-.635-1.363-.565l-3.08.248c-.89.07-.897.237-.014.372l2.6.396c.88.134 1.715-.07 1.856-.45M214.59 36.262c-.14-.418-.338-.446-.442-.064-.103.382-.074 1.235.063 1.896.14.66.34.688.44.063.106-.626.08-1.478-.06-1.895M259.338 22.818c-.313-.104-.284-.843.064-1.64.346-.8.602-.726.566.166v.044c-.035.89-.318 1.536-.63 1.43M238.13 42.13c.313-.38 1.29-.585 2.17-.453l4.368.655c.883.132.876.262-.014.286l-5.47.16c-.892.028-1.364-.265-1.054-.647M279.534 42.13c.382-.52 1.412-.808 2.29-.638l4.01.775c.875.17.863.348-.027.402l-5.347.313c-.893.054-1.308-.33-.926-.852M281.178 26.983c-.174-.59.403-.965 1.285-.834l3.61.532c.88.13.884.37.006.53l-2.99.55c-.877.16-1.737-.19-1.912-.78M276.946 9.438c-.277-.244-.533-1.172-.564-2.063l-.006-.17c-.03-.89.128-.912.357-.05l.304 1.157c.227.862.186 1.37-.09 1.126M236.807 30.583l-2.28-.914c-.83-.332-.783-.535.106-.452l2.423.227M150.147 37.9c.17-.484.17-1.25 0-1.703-.172-.45-1.044-.818-1.935-.818h-.927c-.892 0-1.876.424-2.19.946-.312.52.135 1.148.993 1.39l2.187.625c.86.245 1.7.046 1.872-.44"/><path fill="#020303" d="M148.632 36.64c-.593-.624-.563-1.137.064-1.137.625 0 1.392.314 1.704.696.31.38.18 1.313-.293 2.07l-.175.28c-.475.754-.717.89-.545.3.177-.593-.165-1.585-.755-2.21M91.51 8.238c.07-.486.834-.707 1.698-.49l.39.097c.865.218.86.56-.007.763l-.626.146c-.868.204-1.523-.028-1.453-.516M50.675 15.117c-.175.313-1.023.397-1.89.188l-.51-.123c-.865-.208-.85-.422.044-.476l1.05-.062c.89-.052 1.48.16 1.305.473M17.79 29.066c.142-.418-.463-.62-1.337-.448l-1.358.264c-.875.17-.87.424.01.56l.83.132c.88.138 1.717-.09 1.856-.508"/><path fill="#282729" d="M20.316 42.385c-.277-.31-.3-1.27-.047-2.123l.347-1.183c.25-.857.42-.828.38.063l-.102 2.19c-.04.892-.3 1.362-.58 1.052M51.875 46.55c-.278-.175-.278-.94 0-1.705.278-.764.505-.658.505.234v.163c0 .892-.227 1.48-.505 1.306M80.34 27.553c-.033-.556.204-.333.53.5l.2.515c.33.83.31 1.168-.036.752-.347-.417-.66-1.212-.693-1.767M238.512 42.637c.31-.244.366-1.144.12-2l-.373-1.303c-.245-.857-.428-.83-.405.062l.052 2.062c.018.89.293 1.422.605 1.18M280.168 42.383c.45-.244.516-1.105.14-1.913l-1.672-3.62c-.372-.812-.544-.758-.38.12l.795 4.26c.164.88.667 1.397 1.118 1.153M281.934 26.92c-.174-.346-.638.025-1.032.824l-1.725 3.528c-.394.8-.284.867.243.15l1.873-2.562c.527-.72.816-1.59.64-1.94"/><path fill="#020303" d="M254.855 9.627l.07-2.038c.03-.893.24-.916.463-.054l.603 2.343"/><path fill="#595558" d="M14.322 43.267c-.798-.243-.74-.385.126-.314.867.068 2.146.21 2.84.315.692.104.636.247-.127.314-.763.07-2.04-.072-2.838-.315M54.283 38.797c-.63-.63-.72-.553-.204.172l.64.895c.517.725 1.34 1.574 1.827 1.887.486.313.458.058-.062-.568-.522-.625-1.465-1.652-2.095-2.282l-.107-.105zM70.557 37.02c-.21 0-.095.595.252 1.326.346.73.516.73.378 0-.14-.732-.423-1.326-.63-1.326M93.788 45.1c-.695-.07-.544-.257.333-.42l.97-.174c.877-.16 1.227-.062.776.216-.448.277-1.385.446-2.078.377M110.005 38.345c-.313-.45-.427-.168-.254.63.175.798.63 2.02 1.012 2.714.38.695.528.55.326-.316l-.146-.628c-.204-.87-.624-1.95-.937-2.4M163.656 39.732c-.105-.52-.363-.436-.57.188-.207.625-.378 1.817-.378 2.653 0 .832.232.822.514-.023l.11-.333c.282-.845.427-1.964.324-2.485M145.78 36.256c-.177-.532-.58-.44-.897.2-.316.644.083 1.488.883 1.878l.04.017c.798.39 1.195.296.875-.21-.316-.503-.725-1.35-.9-1.884M175.77 45.35c-.796-.207-.72-.378.172-.378h.293c.89 0 2.273.227 3.073.505.797.278.725.454-.167.39l-.297-.022c-.89-.064-2.27-.286-3.072-.495M196.033 38.345c-.067-.313-.324-.028-.568.63-.246.66-.188.916.126.57.313-.35.513-.89.443-1.2M215.523 37.656c-.07-.31-.326-.028-.568.632-.244.66-.186.917.127.568.31-.348.51-.887.44-1.2M212.394 43.51c-.876-.167-.865-.376.02-.463l.687-.066c.888-.084 1.984.072 2.437.35.45.28.31.506-.316.506s-1.85-.137-2.728-.306l-.098-.02zM241.038 43.458c-.8.07-.8-.073 0-.316.797-.244 2.18-.38 3.066-.305l1.187.104c.888.076.887.18-.003.232l-1.18.067c-.89.05-2.273.15-3.07.218"/><path fill="#282729" d="M259.525 23.07c-.416.175-1.036.99-1.378 1.814l-.017.034c-.342.824-.183.917.354.206l.817-1.077c.542-.712.644-1.15.225-.976"/><path fill="#020303" d="M290.9 9.25c-.384 0-.767-.727-.854-1.615l-.066-.685c-.086-.89.146-.95.513-.137l.435.96c.365.81.353 1.476-.03 1.476M171.608 12.845c-.034-.45.667-.795 1.558-.765l.542.017c.89.03.947.333.124.674l-.665.273c-.823.342-1.526.252-1.56-.198M127.236 14.486c-.35-.174-.54.407-.425 1.29l.09.702c.116.884.372.897.575.028l.026-.123c.204-.87.083-1.722-.264-1.897M87.532 26.795c-.104-.346.54-.63 1.432-.63h3.45c.89 0 .905.143.03.317l-3.132.625c-.873.175-1.677.035-1.78-.312M17.066 33.736c.053-.26-.634-.475-1.527-.475h-.83c-.893 0-.913.175-.047.387l.733.178c.865.214 1.616.17 1.67-.09"/><path fill="#E1DCD7" d="M4.515 36.623c-.892.01-1.48.16-1.303.333.175.175 1.047.317 1.938.317h6.606c.89 0 1.762-.17 1.936-.38.174-.208-.416-.37-1.307-.36l-7.87.09zM34.436 36.623c-.894.01-1.482.16-1.306.333.173.175 1.043.317 1.934.317h6.606c.89 0 1.763-.17 1.938-.38.174-.208-.416-.37-1.306-.36l-7.866.09zM51.257 36.492c-.89.028-1.573.196-1.516.37.06.174.838.316 1.73.316h.113c.892 0 1.67-.17 1.73-.38.06-.21-.62-.354-1.513-.326l-.543.02zM21.243 21.817c-.89.03-1.572.197-1.513.37.062.174.84.317 1.73.317h.112c.89 0 1.668-.17 1.73-.38.06-.21-.622-.355-1.513-.326l-.547.02zM33.645 21.817c-.89.03-1.57.197-1.512.37.062.174.838.317 1.728.317h.114c.892 0 1.67-.17 1.73-.38.06-.21-.623-.355-1.515-.326l-.545.02zM8.838 23.8c-.89.03-1.574.2-1.52.375.05.173.776.315 1.606.315.83 0 1.553-.17 1.606-.378.054-.208-.63-.352-1.52-.32l-.172.007zM23.705 28.847c-.893.017-1.53.17-1.422.346.112.174.93.314 1.822.314h2.964c.892 0 1.71-.17 1.82-.376.11-.207-.53-.364-1.42-.348l-3.765.065zM16.888 7.263c-.893.016-1.53.17-1.42.344.11.173.93.315 1.82.315h2.967c.893 0 1.712-.17 1.82-.378.11-.21-.53-.367-1.422-.35l-3.765.07zM68.485 36.492c-.89.028-1.572.196-1.512.37.06.174.837.316 1.728.316h.112c.89 0 1.67-.17 1.73-.38.06-.21-.62-.354-1.514-.326l-.543.02zM97.927 36.487c-.89.03-1.577.2-1.522.375.053.174.777.317 1.607.317.833 0 1.554-.172 1.607-.382.052-.208-.636-.35-1.523-.32l-.17.01zM73.977 36.514c-.89.02-1.544.175-1.447.35.095.173.903.313 1.794.313h2.216c.892 0 1.7-.17 1.795-.378.095-.21-.556-.367-1.448-.347l-2.91.06zM89.598 36.516c-.893.017-1.533.172-1.426.347.108.174.925.315 1.816.315h2.793c.893 0 1.71-.17 1.82-.38.105-.207-.537-.366-1.428-.347l-3.574.066zM106.83 36.506c-.89.023-1.556.183-1.48.357.08.174.872.314 1.763.314h1.207c.89 0 1.685-.17 1.765-.38.08-.207-.586-.36-1.48-.337l-1.774.046zM141.005 36.506c-.89.023-1.557.183-1.477.357.08.174.874.314 1.766.314h1.202c.89 0 1.686-.17 1.766-.38.08-.207-.585-.36-1.476-.337l-1.78.046zM165.336 36.5c-.89.025-1.564.188-1.495.362.073.174.857.316 1.752.316h.7c.89 0 1.68-.17 1.75-.38.07-.208-.6-.358-1.493-.332l-1.214.034zM177.458 36.525c-.89.012-1.5.163-1.35.337.15.174 1 .314 1.892.314h5.295c.89 0 1.743-.17 1.894-.38.15-.207-.456-.37-1.348-.357l-6.384.085zM192.415 36.495c-.89.028-1.57.194-1.507.37.063.17.843.314 1.73.314h.255c.892 0 1.67-.172 1.733-.38.064-.21-.615-.356-1.508-.33l-.703.025zM197.814 36.514c-.895.02-1.543.175-1.447.35s.906.313 1.797.313h2.27c.892 0 1.702-.17 1.8-.378.094-.21-.555-.367-1.447-.347l-2.973.06zM209.74 36.508c-.892.02-1.553.18-1.47.354s.88.316 1.773.316h1.425c.89 0 1.69-.17 1.772-.38.082-.207-.58-.362-1.47-.34l-2.03.05zM216.84 36.5c-.89.027-1.564.19-1.498.364.068.173.854.315 1.747.315h.59c.89 0 1.676-.172 1.74-.38.07-.21-.605-.358-1.496-.332l-1.083.032zM226.88 36.53c-.892.008-1.472.158-1.286.332.185.174 1.066.316 1.957.316h7.307c.892 0 1.774-.17 1.96-.38.184-.208-.393-.37-1.283-.36l-8.654.09zM243.918 36.53c-.892.008-1.47.158-1.285.332.184.174 1.066.316 1.96.316h7.304c.892 0 1.774-.17 1.96-.38.19-.208-.39-.37-1.28-.36l-8.66.09zM286.996 36.53c-.89.008-1.468.158-1.28.332.184.174 1.066.316 1.96.316h7.296c.893 0 1.776-.17 1.962-.38.185-.208-.392-.37-1.282-.36l-8.656.09zM271.184 7.827c-.89.018-1.536.172-1.43.347.103.174.92.315 1.81.315h2.687c.893 0 1.71-.17 1.814-.38.104-.208-.54-.366-1.432-.348l-3.448.065zM257.74 7.832c-.89.015-1.522.167-1.403.342.122.174.95.315 1.842.315h3.52c.895 0 1.72-.17 1.842-.38.118-.208-.512-.366-1.405-.352l-4.398.074zM250.92 7.82c-.89.02-1.552.18-1.467.353.082.174.878.316 1.773.316h1.515c.893 0 1.69-.17 1.775-.38.085-.21-.574-.362-1.468-.34l-2.127.05zM253.198 21.748c-.893.016-1.533.17-1.425.345.106.174.925.314 1.815.314h2.855c.89 0 1.707-.17 1.817-.376.11-.208-.534-.365-1.426-.35l-3.636.068zM211.635 6.876c-.892.02-1.554.18-1.47.354.084.172.88.314 1.774.314h1.51c.893 0 1.69-.17 1.775-.378.082-.208-.58-.362-1.47-.34l-2.12.05zM221.29 6.876c-.894.02-1.554.18-1.47.354.082.172.883.314 1.774.314h1.517c.892 0 1.69-.17 1.774-.378.08-.208-.578-.362-1.472-.34l-2.123.05zM215.107 13.004c-.72.032-1.275.204-1.232.378.042.175.6.318 1.236.318s1.194-.17 1.233-.38c.04-.206-.517-.35-1.236-.316M218.546 11.016c-.89.034-1.577.205-1.528.38.05.173.748.316 1.55.316s1.495-.17 1.545-.38c.05-.21-.64-.352-1.53-.317h-.037zM175.562 11.395c-.89.033-1.58.203-1.53.378.05.174.748.317 1.55.317s1.497-.17 1.552-.38c.053-.208-.636-.35-1.524-.318l-.048.003zM186.355 21.44c-.894.028-1.573.193-1.507.368.063.173.844.316 1.735.316h.28c.89 0 1.672-.17 1.733-.377.063-.21-.615-.357-1.507-.33l-.735.023zM178.78 25.058c-.89.02-1.542.175-1.445.348.097.174.904.315 1.798.315h2.21c.892 0 1.7-.17 1.796-.378.095-.21-.556-.365-1.446-.345l-2.913.06zM285.952 25.815c-.89.02-1.54.175-1.445.35.097.172.908.314 1.798.314h2.21c.892 0 1.7-.172 1.797-.38.097-.21-.554-.363-1.443-.345l-2.918.06zM107.685 28.645c-.89.024-1.563.187-1.492.36.073.172.86.314 1.752.314h.868c.89 0 1.682-.17 1.755-.38s-.595-.357-1.488-.333l-1.395.038zM92.533 25.614c-.89.024-1.56.187-1.49.36.073.173.86.314 1.75.314h.87c.894 0 1.684-.17 1.757-.377.073-.208-.597-.358-1.49-.334l-1.397.038zM70.944 25.33c-.892.024-1.56.187-1.488.36.075.175.865.317 1.756.317h.868c.89 0 1.68-.17 1.754-.38.074-.21-.597-.36-1.49-.336l-1.4.04zM38.287 13.782c-.89.016-1.54.168-1.443.342.1.175.91.32 1.802.324l2.378.008c.89.004 1.704-.165 1.802-.373.1-.21-.546-.367-1.44-.352l-3.1.052zM99.586 8.293c-.886-.097-1.574-.028-1.525.155.05.183.812.43 1.695.55l.863.116c.884.12 1.69.058 1.788-.137.1-.196-.543-.436-1.43-.533l-1.39-.15zM192.51 27.412c-.893.024-1.564.186-1.49.36.072.173.862.314 1.752.314h.87c.89 0 1.68-.17 1.752-.378.07-.208-.597-.358-1.49-.334l-1.395.038zM219.776 24.763c-.89.024-1.56.186-1.488.36.073.172.862.314 1.753.314h.87c.892 0 1.68-.17 1.753-.38.07-.21-.596-.357-1.488-.333l-1.4.04zM154.256 7.56c-.89.008-1.435.157-1.207.332.227.173 1.142.315 2.033.315h9.6c.89 0 1.805-.17 2.034-.38.224-.208-.318-.373-1.21-.364l-11.25.096zM121.787 7.657c-.89.007-1.43.156-1.194.33.235.173 1.158.314 2.048.314h10.013c.89 0 1.81-.168 2.047-.378.235-.208-.305-.372-1.196-.364l-11.717.1zM120.085 21.466c-.892.013-1.518.167-1.39.34.125.176.96.32 1.85.32h3.977c.89 0 1.724-.17 1.85-.38.126-.207-.5-.366-1.39-.353l-4.897.073zM128.79 21.465c-.89.013-1.522.168-1.4.342.12.175.947.318 1.84.318h3.553c.89 0 1.718-.17 1.84-.377.12-.21-.512-.37-1.403-.353l-4.43.07zM147.446 34.69c-.892.03-1.573.2-1.516.372.057.173.833.316 1.725.316h.027c.89 0 1.668-.17 1.728-.38s-.62-.353-1.513-.323l-.45.016zM144.883 12.498c-.886-.102-1.56-.033-1.5.15.062.186.834.435 1.717.557l1.63.227c.883.12 1.698.06 1.812-.134s-.516-.438-1.403-.54l-2.257-.26zM226.298 27.46c-.886-.103-1.56-.037-1.496.145.058.184.837.434 1.72.557l1.623.225c.884.12 1.698.063 1.813-.132.114-.194-.517-.436-1.402-.538l-2.258-.258zM223.35 13.004c-.668.032-1.185.204-1.147.378.037.175.552.318 1.143.318.594 0 1.108-.17 1.147-.38.04-.206-.476-.35-1.144-.316M261.812 21.75c-.89.016-1.524.168-1.405.342.12.174.947.316 1.84.316h3.526c.89 0 1.72-.17 1.84-.378.115-.208-.516-.365-1.41-.352l-4.39.072zM293.05 7.82c-.89.02-1.55.18-1.463.354.087.174.887.315 1.778.315h1.622c.894 0 1.694-.17 1.778-.38.09-.208-.57-.36-1.463-.34l-2.25.05zM152.936 36.527c-.89.01-1.487.162-1.325.336.167.173 1.03.314 1.92.314h6.075c.89 0 1.755-.17 1.92-.378.164-.21-.43-.37-1.322-.36l-7.267.087zM113.173 36.532c-.89.008-1.444.156-1.23.33.217.174 1.12.316 2.014.316h9.008c.892 0 1.8-.17 2.015-.38.216-.21-.338-.373-1.23-.364l-10.577.098zM127.943 36.52c-.89.015-1.523.17-1.405.343.12.173.945.314 1.836.314h3.47c.89 0 1.715-.17 1.836-.38.116-.207-.517-.365-1.408-.35l-4.33.072zM57.666 36.603c-.89.02-1.556.18-1.472.354.082.175.877.316 1.77.316h1.458c.89 0 1.688-.17 1.77-.38.084-.208-.577-.36-1.468-.34l-2.058.05z"/></svg>